<svg width="60" height="44" viewBox="0 0 60 44" fill="none" xmlns="http://www.w3.org/2000/svg">
<path d="M0 6.765V13.3333H9.38L0 6.765ZM7.77333 43.3333H21.6667V33.605L7.77333 43.3333ZM38.3333 33.6067V43.3333H52.225L38.3333 33.6067ZM0 30V36.5683L9.38333 30H0ZM52.2283 0H38.3333V9.72833L52.2283 0ZM60 36.57V30H50.615L60 36.57ZM60 13.3333V6.765L50.6183 13.3333H60ZM21.6667 0H7.77333L21.6667 9.72833V0Z" fill="#00247D"/>
<path d="M41.9 30L58.0867 41.335C58.8772 40.5207 59.4453 39.5169 59.7367 38.42L47.7117 30H41.9ZM21.6667 30H18.0983L1.91334 41.3334C2.78167 42.2167 3.895 42.8484 5.14334 43.1417L21.6667 31.5717V30ZM38.3333 13.3334H41.9017L58.0867 2.00004C57.2034 1.10384 56.0839 0.476755 54.8583 0.191711L38.3333 11.7617V13.3334ZM18.0983 13.3334L1.91334 2.00004C1.12326 2.815 0.554693 3.81845 0.261669 4.91504L12.2867 13.3334H18.0983Z" fill="#CF1B2B"/>
<path d="M60 26.6667H35V43.3333H38.3333V33.6067L52.225 43.3333H53.3333C54.2188 43.3335 55.0953 43.1568 55.9116 42.8136C56.7278 42.4705 57.4673 41.9678 58.0867 41.335L41.9 30H47.7117L59.7367 38.42C59.8917 37.8583 60 37.2767 60 36.6667V36.57L50.615 30H60V26.6667ZM0 26.6667V30H9.38333L0 36.5683V36.6667C0 38.485 0.731667 40.13 1.91333 41.3333L18.0983 30H21.6667V31.5717L5.14333 43.14C5.63333 43.2567 6.14 43.3333 6.66667 43.3333H7.77333L21.6667 33.605V43.3333H25V26.6667H0ZM60 6.66667C60.001 4.91997 59.3136 3.24326 58.0867 2L41.9017 13.3333H38.3333V11.7617L54.8583 0.191667C54.3591 0.0692124 53.8474 0.00489676 53.3333 6.3063e-07H52.2283L38.3333 9.72833V6.3063e-07H35V16.6667H60V13.3333H50.6183L60 6.765V6.66667ZM21.6667 6.3063e-07V9.72833L7.77333 6.3063e-07H6.66667C5.78104 -0.000385287 4.90428 0.176356 4.08796 0.519825C3.27165 0.863295 2.53227 1.36656 1.91333 2L18.0983 13.3333H12.2867L0.261667 4.915C0.0963003 5.48452 0.00828902 6.07369 0 6.66667L0 6.765L9.38 13.3333H0V16.6667H25V6.3063e-07H21.6667Z" fill="#EEEEEE"/>
<path d="M35 16.6667V0H25V16.6667H0V26.6667H25V43.3333H35V26.6667H60V16.6667H35Z" fill="#CF1B2B"/>
</svg>
