<svg width="55" height="55" viewBox="0 0 55 55" fill="none" xmlns="http://www.w3.org/2000/svg">
<path d="M46.5005 27.5C46.5005 38.2696 37.7701 47 27.0005 47C16.231 47 7.5005 38.2696 7.5005 27.5C7.5005 16.7304 16.231 8 27.0005 8C37.7701 8 46.5005 16.7304 46.5005 27.5Z" fill="#f8fafc"/>
<path d="M32.5005 5C32.5005 7.76143 30.2619 6 27.5005 6C24.7391 6 22.5005 7.76143 22.5005 5C22.5005 2.23858 24.7391 0 27.5005 0C30.2619 0 32.5005 2.23858 32.5005 5Z" fill="#f1f5f9"/>
<path d="M10.1444 12.3337C12.5685 13.6564 9.95 14.7777 8.62731 17.2018C7.30463 19.6258 7.7786 22.4346 5.35456 21.1119C2.93052 19.7892 2.03769 16.7519 3.36038 14.3279C4.68306 11.9038 7.72039 11.011 10.1444 12.3337Z" fill="#f1f5f9"/>
<path d="M48.769 18.6172C46.5125 20.2089 46.6616 17.3643 45.0699 15.1077C43.4783 12.8512 40.7486 12.0371 43.0052 10.4455C45.2618 8.85382 48.3814 9.39286 49.973 11.6494C51.5647 13.906 51.0256 17.0256 48.769 18.6172Z" fill="#f1f5f9"/>
<path d="M22.5005 50C22.5005 47.2386 24.7391 49 27.5005 49C30.2619 49 32.5005 47.2386 32.5005 50C32.5005 52.7614 30.2619 55 27.5005 55C24.7391 55 22.5005 52.7614 22.5005 50Z" fill="#f1f5f9"/>
<path d="M44.8565 42.6663C42.4325 41.3436 45.051 40.2223 46.3736 37.7982C47.6963 35.3742 47.2224 32.5654 49.6464 33.8881C52.0704 35.2108 52.9633 38.2481 51.6406 40.6721C50.3179 43.0962 47.2806 43.989 44.8565 42.6663Z" fill="#f1f5f9"/>
<path d="M6.23216 36.3828C8.48874 34.7911 8.33962 37.6357 9.93126 39.8923C11.5229 42.1488 14.2526 42.9629 11.996 44.5545C9.73942 46.1462 6.61982 45.6071 5.02818 43.3506C3.43654 41.094 3.97558 37.9744 6.23216 36.3828Z" fill="#f1f5f9"/>
</svg>
